<svg width="129" height="118" viewBox="0 0 129 118" fill="none" xmlns="http://www.w3.org/2000/svg">
<path d="M48.9546 36.6001L50.1869 35.7449L48.9546 33.9692L47.7223 35.7449L48.9546 36.6001ZM80.0455 81.4001L78.8132 82.2553L80.0455 84.031L81.2778 82.2553L80.0455 81.4001ZM122.976 21.4001C122.829 20.5849 122.049 20.0434 121.233 20.1906L107.948 22.5905C107.133 22.7377 106.592 23.518 106.739 24.3332C106.886 25.1485 107.666 25.69 108.482 25.5427L120.291 23.4095L122.424 35.2184C122.571 36.0336 123.351 36.5751 124.167 36.4278C124.982 36.2806 125.523 35.5003 125.376 34.6851L122.976 21.4001ZM24.0706 75.0873L50.1869 37.4553L47.7223 35.7449L21.6059 73.3769L24.0706 75.0873ZM47.7223 37.4553L78.8132 82.2553L81.2778 80.5449L50.1869 35.7449L47.7223 37.4553ZM81.2778 82.2553L122.732 22.522L120.268 20.8115L78.8132 80.5449L81.2778 82.2553Z" fill="#5B2514"/>
<path d="M16.9561 84.5681C16.8088 83.7528 16.0286 83.2113 15.2134 83.3586L1.92837 85.7584C1.11313 85.9057 0.571639 86.686 0.718904 87.5012C0.86617 88.3164 1.64643 88.8579 2.46166 88.7107L14.2705 86.5775L16.4037 98.3863C16.551 99.2016 17.3312 99.7431 18.1465 99.5958C18.9617 99.4485 19.5032 98.6683 19.3559 97.8531L16.9561 84.5681ZM14.2477 83.9795L6.26768 95.4782L8.73232 97.1886L16.7123 85.6899L14.2477 83.9795Z" fill="#5B2514"/>
</svg>
