<svg width="125" height="80" viewBox="0 0 125 80" fill="none" xmlns="http://www.w3.org/2000/svg">
<path d="M48.4546 16.6001L49.6869 15.7449L48.4546 13.9692L47.2223 15.7449L48.4546 16.6001ZM79.5455 61.4001L78.3132 62.2553L79.5455 64.031L80.7778 62.2553L79.5455 61.4001ZM122.476 1.4001C122.329 0.584868 121.549 0.0433732 120.733 0.190639L107.448 2.59047C106.633 2.73773 106.092 3.51799 106.239 4.33322C106.386 5.14846 107.166 5.68995 107.982 5.54269L119.791 3.40951L121.924 15.2184C122.071 16.0336 122.851 16.5751 123.667 16.4278C124.482 16.2806 125.023 15.5003 124.876 14.6851L122.476 1.4001ZM23.5706 55.0873L49.6869 17.4553L47.2223 15.7449L21.1059 53.3769L23.5706 55.0873ZM47.2223 17.4553L78.3132 62.2553L80.7778 60.5449L49.6869 15.7449L47.2223 17.4553ZM80.7778 62.2553L122.232 2.52197L119.768 0.811529L78.3132 60.5449L80.7778 62.2553Z" fill="#50281D"/>
<path d="M16.4561 64.5681C16.3088 63.7528 15.5286 63.2113 14.7134 63.3586L1.42837 65.7584C0.613134 65.9057 0.0716391 66.686 0.218904 67.5012C0.36617 68.3164 1.14643 68.8579 1.96166 68.7107L13.7705 66.5775L15.9037 78.3863C16.051 79.2016 16.8312 79.7431 17.6465 79.5958C18.4617 79.4485 19.0032 78.6683 18.8559 77.8531L16.4561 64.5681ZM13.7477 63.9795L5.76768 75.4782L8.23232 77.1886L16.2123 65.6899L13.7477 63.9795Z" fill="#50281D"/>
</svg>
