<svg width="53" height="52" viewBox="0 0 53 52" fill="none" xmlns="http://www.w3.org/2000/svg" stroke-width="2">
<path d="M40.7683 23.8808H24.5622V22.5921L14.6103 11.6895V7.37283H18.401V3.39828H14.6103V0H10.4519V3.39828H6.66125V7.37283H10.4519V11.6911L0.5 22.592V52H10.4632V43.0231C10.4664 41.9315 11.3908 41.0477 12.5319 41.0462C13.673 41.0477 14.5974 41.9315 14.599 43.0231V52H22.203H23.9057H24.5621H40.4698H52.5V36.7318L40.7683 23.8808ZM23.2478 29.2438V50.7428H22.203H15.9134V43.0231C15.9134 41.2372 14.3999 39.7896 12.5319 39.7896C10.6639 39.7896 9.1488 41.2372 9.1488 43.0231V50.7428H1.81437V23.0638L11.7663 12.1621V6.11548H7.97562V4.65491L11.7663 4.65573V1.25653H13.2958V4.65562H17.0866V6.11548H13.2958V12.1613L23.2477 23.0638V25.1374H40.1712L50.3961 36.3391H24.5622V29.2439H23.2478V29.2438ZM51.1856 50.7428H40.4698H24.5622V37.5964H51.1857V50.7428H51.1856Z" fill="#5B2514" />
<path d="M32.175 33.7875V28.4452H26.7521V34.4157H32.175V33.7875ZM30.8606 33.1584H28.0666V29.7017H30.8606V33.1584Z" fill="#5B2514"/>
<path d="M40.8028 33.7875V28.4452H35.3799V34.4157H40.8028V33.7875ZM39.4884 33.1584H36.6943V29.7017H39.4884V33.1584Z" fill="#5B2514"/>
<path d="M5.41809 18.0044H11.2519V17.3761V12.4274H5.41809V18.0044ZM6.73267 13.6839H9.93754V16.7478H6.73267V13.6839Z" fill="#5B2514"/>
</svg>
