<svg width="53" height="52" viewBox="0 0 53 52" fill="none" xmlns="http://www.w3.org/2000/svg">
<path d="M48.1788 40.5496L39.8995 36.0341C39.1187 35.6077 38.6333 34.7511 38.6333 33.7981V30.6015C38.8318 30.3368 39.0407 30.0352 39.2565 29.7024C40.3303 28.0479 41.1909 26.2061 41.8166 24.2197C43.0395 23.608 43.8333 22.2891 43.8333 20.8V17.0182C43.8333 16.1077 43.5213 15.2256 42.9667 14.5364V9.50749C43.0152 8.98749 43.2059 5.89207 41.1536 3.3384C39.3735 1.1232 36.4849 0 32.5667 0C28.6485 0 25.7599 1.1232 23.9797 3.33745C22.7361 4.88516 22.3175 6.62858 22.1909 7.88036C20.7055 7.04269 18.9548 6.61818 16.9667 6.61818C7.96287 6.61818 7.43853 14.9902 7.43333 15.1273V19.4565C6.87173 20.124 6.56667 20.8945 6.56667 21.6594V24.925C6.56667 25.9452 6.98527 26.8963 7.70287 27.5392C8.41787 30.4796 10.1763 32.7014 10.861 33.4814V36.0748C10.861 36.8188 10.4901 37.5015 9.84613 37.8853L4.0802 41.8307C1.87193 43.1449 0.5 45.6664 0.5 48.4101V52H12.6333H14.3667H52.5V48.1775C52.5 44.9271 50.8438 42.0037 48.1788 40.5496ZM12.6333 47.9932V50.1091H2.23333V48.4101C2.23333 46.3585 3.25947 44.4732 4.95553 43.4625L10.7206 39.5172C11.8759 38.8298 12.5935 37.5119 12.5935 36.0748V32.6796L12.3179 32.3988C12.2953 32.3761 9.9926 30.0031 9.31227 26.7687L9.2334 26.3943L8.937 26.1863C8.53833 25.9045 8.3 25.4327 8.3 24.925V21.6594C8.3 21.3191 8.51233 20.9144 8.88153 20.5495L9.16667 20.2687L9.16493 15.1821C9.18053 14.9108 9.63207 8.50909 16.9667 8.50909C19.0406 8.50909 20.7869 9.03193 22.1667 10.0634V14.5364C21.612 15.2256 21.3 16.1077 21.3 17.0182V20.8C21.3 21.0874 21.3303 21.3701 21.3875 21.6443C21.4109 21.754 21.4577 21.8542 21.4898 21.9601C21.5375 22.1189 21.5756 22.2825 21.6423 22.4328C21.6432 22.4347 21.6441 22.4356 21.6449 22.4375C21.8668 22.9367 22.1901 23.383 22.5974 23.7394C22.6017 23.7574 22.6069 23.7735 22.6113 23.7905C22.6633 24.007 22.7179 24.2225 22.7768 24.4334L22.847 24.6801C22.8591 24.7236 22.8739 24.7681 22.8869 24.8116C22.9172 24.9137 22.9467 25.0148 22.9779 25.1151C23.0299 25.2805 23.0845 25.4516 23.1477 25.6379C23.1746 25.7154 23.2041 25.7854 23.2318 25.862C23.3029 26.0596 23.3739 26.2505 23.4485 26.4396C23.4667 26.485 23.4823 26.5342 23.5005 26.5786L23.549 26.6977C23.5715 26.7526 23.5949 26.8017 23.6175 26.8556C23.7024 27.058 23.7856 27.2537 23.8723 27.4428C23.8861 27.473 23.8991 27.5061 23.913 27.5364C23.9676 27.6545 24.0222 27.7661 24.0768 27.8796C24.1704 28.0743 24.2623 28.2577 24.3541 28.4355C24.3992 28.5225 24.4434 28.6076 24.4876 28.6898C24.6124 28.9224 24.7311 29.1361 24.8464 29.3346C24.8715 29.3772 24.8958 29.4216 24.9201 29.4623C25.1298 29.8168 25.3118 30.1042 25.4626 30.3283C25.5025 30.3879 25.5371 30.4389 25.5709 30.489C25.59 30.5164 25.616 30.5561 25.6325 30.5807V33.7092C25.6325 34.6244 25.1749 35.464 24.4391 35.9027L22.1459 37.267L21.7463 37.2282L21.5834 37.6017L16.7075 40.5033C14.1942 42.0009 12.6333 44.8694 12.6333 47.9932ZM50.7667 50.1091H14.3667V47.9932C14.3667 45.5624 15.5817 43.3283 17.5378 42.1654L25.2693 37.5648C26.5633 36.7943 27.3667 35.3165 27.3667 33.7102V29.9113L27.1985 29.6911L27.1656 29.6485C27.1639 29.6457 27.1101 29.5748 27.0226 29.45C27.0174 29.4424 27.0122 29.4348 27.0061 29.4273C26.9602 29.362 26.9065 29.2836 26.8449 29.19C26.8441 29.1881 26.8432 29.1871 26.8423 29.1852C26.7132 28.9895 26.5511 28.7352 26.3709 28.4289C26.3665 28.4223 26.3631 28.4147 26.3587 28.4081C26.2738 28.2634 26.1837 28.1055 26.0918 27.9382C26.0849 27.9259 26.0779 27.9136 26.071 27.9004C25.8751 27.542 25.6671 27.1364 25.46 26.6873L25.4591 26.6855C25.3491 26.4444 25.239 26.191 25.1315 25.9272C25.1168 25.8903 25.1012 25.8544 25.0865 25.8175C25.0388 25.6993 24.9911 25.5755 24.9426 25.4479C24.9253 25.4015 24.9079 25.3533 24.8906 25.306C24.8455 25.1822 24.7996 25.0574 24.7511 24.9146C24.6627 24.6575 24.5795 24.3889 24.4997 24.1119L24.4521 23.9436C24.4469 23.9247 24.4408 23.9058 24.4356 23.886C24.3541 23.5872 24.2761 23.2818 24.2103 22.9679L24.1314 22.5935L23.8359 22.3855C23.3332 22.0319 23.0333 21.4391 23.0333 20.8V17.0182C23.0333 16.4878 23.2396 15.9933 23.614 15.6236L23.9 15.3428V9.45455V9.11985L23.8766 9.1C23.8471 8.41738 23.8844 6.32509 25.2832 4.58451C26.7193 2.79665 29.1702 1.89091 32.5667 1.89091C35.951 1.89091 38.3967 2.79004 39.8345 4.56465C41.5219 6.6456 41.2429 9.308 41.2411 9.33069L41.2333 15.3428L41.5193 15.6246C41.8937 15.9933 42.1 16.4878 42.1 17.0182V20.8C42.1 21.6254 41.6043 22.3477 40.8676 22.5954L40.436 22.7401L40.2973 23.2081C39.7175 25.1756 38.8916 26.9927 37.8412 28.6095C37.5838 29.0075 37.3333 29.3601 37.1158 29.6296L36.9 29.8981V33.7981C36.9 35.4716 37.7519 36.9758 39.1239 37.7246L47.4031 42.2401C49.4779 43.3718 50.7667 45.6465 50.7667 48.1775V50.1091Z" fill="#5B2514"/>
</svg>
