<svg width="126" height="115" viewBox="0 0 126 115" fill="none" xmlns="http://www.w3.org/2000/svg">
<path d="M68.5312 108.475H57.4688C54.7782 108.475 52.5875 106.284 52.5875 103.594V59.3438C52.5875 57.9707 51.4668 56.85 50.0938 56.85H27.9688C25.2782 56.85 23.0875 54.6593 23.0875 51.9688V40.9062C23.0875 38.2157 25.2782 36.025 27.9688 36.025H42.7188C43.3775 36.025 43.9125 36.56 43.9125 37.2188C43.9125 37.8775 43.3775 38.4125 42.7188 38.4125H27.9688C26.5957 38.4125 25.475 39.5332 25.475 40.9062V51.9688C25.475 53.3418 26.5957 54.4625 27.9688 54.4625H50.0938C52.7843 54.4625 54.975 56.6532 54.975 59.3438V103.594C54.975 104.967 56.0957 106.088 57.4688 106.088H68.5312C69.9043 106.088 71.025 104.967 71.025 103.594V59.3438C71.025 56.6532 73.2157 54.4625 75.9062 54.4625H98.0312C99.4043 54.4625 100.525 53.3418 100.525 51.9688V40.9062C100.525 39.5332 99.4043 38.4125 98.0312 38.4125H75.9062C73.2157 38.4125 71.025 36.2218 71.025 33.5312V11.4062C71.025 10.0332 69.9043 8.9125 68.5312 8.9125H57.4688C56.0957 8.9125 54.975 10.0332 54.975 11.4062V37.2188C54.975 37.8775 54.44 38.4125 53.7812 38.4125C53.1225 38.4125 52.5875 37.8775 52.5875 37.2188V11.4062C52.5875 8.71567 54.7782 6.525 57.4688 6.525H68.5312C71.2218 6.525 73.4125 8.71567 73.4125 11.4062V33.5312C73.4125 34.9043 74.5332 36.025 75.9062 36.025H98.0312C100.722 36.025 102.912 38.2157 102.912 40.9062V51.9688C102.912 54.6593 100.722 56.85 98.0312 56.85H75.9062C74.5332 56.85 73.4125 57.9707 73.4125 59.3438V103.594C73.4125 106.284 71.2218 108.475 68.5312 108.475Z" stroke="#5B2514" stroke-width="1.3"/>
<path d="M68.5312 108.475H57.4688C54.7782 108.475 52.5875 106.284 52.5875 103.594V59.3438C52.5875 57.9707 51.4668 56.85 50.0938 56.85H27.9688C25.2782 56.85 23.0875 54.6593 23.0875 51.9688V40.9062C23.0875 38.2157 25.2782 36.025 27.9688 36.025H42.7188C43.3775 36.025 43.9125 36.56 43.9125 37.2188C43.9125 37.8775 43.3775 38.4125 42.7188 38.4125H27.9688C26.5957 38.4125 25.475 39.5332 25.475 40.9062V51.9688C25.475 53.3418 26.5957 54.4625 27.9688 54.4625H50.0938C52.7843 54.4625 54.975 56.6532 54.975 59.3438V103.594C54.975 104.967 56.0957 106.088 57.4688 106.088H68.5312C69.9043 106.088 71.025 104.967 71.025 103.594V59.3438C71.025 56.6532 73.2157 54.4625 75.9062 54.4625H98.0312C99.4043 54.4625 100.525 53.3418 100.525 51.9688V40.9062C100.525 39.5332 99.4043 38.4125 98.0312 38.4125H75.9062C73.2157 38.4125 71.025 36.2218 71.025 33.5312V11.4062C71.025 10.0332 69.9043 8.9125 68.5312 8.9125H57.4688C56.0957 8.9125 54.975 10.0332 54.975 11.4062V37.2188C54.975 37.8775 54.44 38.4125 53.7812 38.4125C53.1225 38.4125 52.5875 37.8775 52.5875 37.2188V11.4062C52.5875 8.71567 54.7782 6.525 57.4688 6.525H68.5312C71.2218 6.525 73.4125 8.71567 73.4125 11.4062V33.5312C73.4125 34.9043 74.5332 36.025 75.9062 36.025H98.0312C100.722 36.025 102.912 38.2157 102.912 40.9062V51.9688C102.912 54.6593 100.722 56.85 98.0312 56.85H75.9062C74.5332 56.85 73.4125 57.9707 73.4125 59.3438V103.594C73.4125 106.284 71.2218 108.475 68.5312 108.475Z" stroke="#5B2514" stroke-width="1.3"/>
</svg>
