<svg width="53" height="52" viewBox="0 0 53 52" fill="none" xmlns="http://www.w3.org/2000/svg">
<path d="M17.0744 48.2058C16.5954 48.0026 16.0424 48.2246 15.8392 48.7036C15.6361 49.1826 15.8594 49.7356 16.3371 49.9387C19.5556 51.3071 22.9747 52 26.5 52C27.127 52 27.7567 51.9771 28.369 51.9327C28.525 51.922 28.6798 51.9099 28.8359 51.8951C31.1664 51.6879 33.4497 51.1685 35.6295 50.3504C39.8842 48.7547 43.6678 46.0503 46.5715 42.5278C46.9738 42.0394 47.3573 41.5389 47.7206 41.0263C50.0861 37.6935 51.6227 33.8697 52.2188 29.8279C52.2645 29.5171 52.3049 29.2036 52.3399 28.8901C52.3399 28.8887 52.3399 28.8887 52.3399 28.8874C52.4462 27.9402 52.5 26.9687 52.5 26C52.5 24.6128 52.3897 23.2189 52.1717 21.8573C51.3469 16.7108 49.011 11.9761 45.4184 8.16705C44.6353 7.33689 43.8051 6.56324 42.9332 5.85013C42.4353 5.44246 41.9227 5.05361 41.3979 4.6863C41.266 4.5948 41.1342 4.50331 41.0023 4.41451C40.7924 4.27323 40.5811 4.136 40.3672 4.00145C39.8223 3.65701 39.2665 3.33409 38.6974 3.03136C38.5117 2.93314 38.3247 2.83492 38.1376 2.74074C38.1255 2.73536 38.1148 2.72863 38.1026 2.72325C37.7232 2.53353 37.3384 2.35459 36.9495 2.18371C36.823 2.12855 36.6952 2.07338 36.5674 2.01956C35.1667 1.43293 33.7121 0.966053 32.2118 0.629683C32.2118 0.629683 32.2118 0.629683 32.2105 0.629683C30.3483 0.212585 28.4268 0 26.5 0C25.3496 0 24.1937 0.0753465 23.0648 0.224694C16.8686 1.04409 11.1648 4.08756 7.00706 8.79538C3.20455 13.0996 0.950758 18.5218 0.56055 24.2226C0.520183 24.8119 0.5 25.4053 0.5 26C0.5 26.4628 0.51211 26.9243 0.53633 27.3845C0.608989 28.7676 0.790638 30.14 1.07858 31.4815C2.14829 36.4638 4.64967 40.9913 8.3109 44.577C8.68227 44.9403 9.27835 44.9349 9.64299 44.5635C10.0076 44.1922 10.0009 43.5961 9.62953 43.2315C6.83618 40.4962 4.77211 37.1688 3.57457 33.5037C4.36172 33.9141 5.30091 34.0083 6.1513 33.7526C6.82676 33.5508 7.38516 33.1539 7.83188 32.8364C8.47506 32.3816 9.11688 31.9282 9.75871 31.4734L9.91075 31.3658C10.2202 31.1464 10.7961 30.7388 11.1487 30.8128C11.4231 30.8693 11.6882 31.2218 11.995 31.6308C12.3341 32.0816 12.7176 32.5915 13.2988 32.9332C14.3215 33.532 15.4948 33.3584 16.5093 33.1095C17.2386 32.9292 17.9625 32.7234 18.673 32.4933C18.829 33.0449 19.0699 33.5414 19.269 33.9518C19.4426 34.311 19.6162 34.6703 19.7911 35.0268C19.9122 35.2771 20.0266 35.5125 20.0521 35.7049C20.0898 35.9767 19.9741 36.3373 19.8517 36.7194C19.6767 37.2684 19.4776 37.89 19.5852 38.5964C19.7871 39.9365 20.951 40.7195 21.8 41.29L21.8431 41.3196C23.4174 42.3758 24.8315 43.6513 26.0479 45.1098C26.5148 45.6709 26.9736 46.2817 27.166 46.9558C27.341 47.5626 27.3181 48.2757 27.2925 49.0292C27.2804 49.3817 27.2697 49.7409 27.2777 50.1029C27.0194 50.111 26.761 50.1163 26.5027 50.1163C23.229 50.1163 20.0575 49.4732 17.0744 48.2058ZM46.184 31.8717C46.0441 31.5151 45.9109 31.1801 45.9122 30.911C45.9149 30.4912 46.2472 30.0109 46.8998 29.4821C47.1689 29.2641 47.2658 29.2345 47.2873 29.2318C47.3331 29.2318 47.4717 29.2749 47.5618 29.3031L47.6116 29.3193C48.4755 29.5857 49.3972 29.735 50.3242 29.7593C50.3202 29.7835 50.3162 29.8077 50.3121 29.8333C50.2798 30.0364 50.2462 30.2383 50.2085 30.4401C50.2032 30.467 50.1978 30.4925 50.1937 30.5195C50.1587 30.7065 50.1211 30.8922 50.0807 31.0778C50.0726 31.1182 50.0632 31.1586 50.0551 31.1989C50.0121 31.3967 49.9663 31.5945 49.9179 31.7909C49.9071 31.8353 49.8964 31.8784 49.8843 31.9228C49.8345 32.1206 49.782 32.3184 49.7282 32.5161C49.7268 32.5229 49.7241 32.5296 49.7228 32.5363C49.6663 32.7355 49.6071 32.9346 49.5465 33.1324C49.5331 33.1754 49.5196 33.2185 49.5062 33.2615C49.4456 33.4553 49.3824 33.6477 49.3164 33.8387C49.3043 33.8751 49.2909 33.9128 49.2774 33.9491C49.2142 34.1294 49.1496 34.3083 49.0837 34.4859C49.0742 34.5101 49.0648 34.5357 49.0554 34.5599C48.9827 34.751 48.9074 34.942 48.8293 35.1318C48.8119 35.1748 48.7944 35.2165 48.7769 35.2596C48.6988 35.4479 48.6181 35.6363 48.5347 35.8233C48.5239 35.8489 48.5118 35.8745 48.4997 35.9C48.4216 36.0736 48.3409 36.2472 48.2588 36.4194C48.2427 36.4517 48.2279 36.4853 48.2117 36.5176C48.1229 36.7006 48.0314 36.8836 47.9373 37.0652C47.9171 37.1042 47.8969 37.1432 47.8754 37.1823C47.7785 37.3679 47.6802 37.5523 47.578 37.7339C47.574 37.7406 47.5699 37.7487 47.5659 37.7554C47.4663 37.933 47.364 38.1106 47.2591 38.2855C47.2376 38.3219 47.216 38.3582 47.1945 38.3959C47.0896 38.5708 46.9819 38.7457 46.8716 38.9179C46.85 38.9516 46.8285 38.9852 46.807 39.0175C46.7007 39.183 46.5931 39.3471 46.4827 39.5099C46.472 39.5261 46.4612 39.5436 46.4491 39.5597C46.332 39.7319 46.2123 39.9015 46.0898 40.071C46.0764 40.0898 46.0616 40.11 46.0481 40.1289L45.8194 39.6378C45.5193 38.9946 45.2098 38.33 45.0807 37.6747C44.9569 37.0477 45.0201 36.4786 45.2596 36.0709C45.3565 35.9054 45.5005 35.7291 45.6552 35.5435C45.9822 35.1466 46.3899 34.6541 46.5298 33.98C46.6953 33.17 46.4114 32.4502 46.184 31.8717ZM35.5542 15.7488C35.4264 15.1164 35.0792 14.6294 34.802 14.2392L34.6863 14.075C33.9664 13.0592 33.2466 12.0434 32.5267 11.0289C32.3545 10.7853 32.1769 10.5351 32.1163 10.3212C32.0706 10.157 32.0692 9.935 32.0719 9.73453C32.0854 8.40789 32.2872 7.09336 32.5011 5.70348C32.6491 4.73473 32.8012 3.74312 32.886 2.74208C32.9075 2.74746 32.9277 2.75419 32.9492 2.75957C33.182 2.82416 33.4134 2.89143 33.6435 2.96409C33.6771 2.97485 33.7094 2.98561 33.7431 2.99503C33.9812 3.07038 34.2167 3.14842 34.4508 3.23049C34.467 3.23587 34.4845 3.2426 34.5006 3.24798C34.7388 3.33275 34.9769 3.4202 35.2111 3.5117C35.2232 3.51573 35.2339 3.51977 35.2461 3.52515C35.4802 3.61664 35.7116 3.71217 35.9417 3.81174C35.97 3.82385 35.9996 3.83595 36.0278 3.84806C36.2498 3.94359 36.4692 4.0445 36.6871 4.14676C36.7208 4.16291 36.7558 4.17905 36.7894 4.1952C37.0047 4.29745 37.22 4.40375 37.4312 4.51273C37.4635 4.52888 37.4972 4.54637 37.5294 4.56386C37.7447 4.67553 37.9573 4.7899 38.1686 4.9083C38.1928 4.92176 38.2157 4.93521 38.2399 4.94866C38.4606 5.07245 38.6785 5.19892 38.8952 5.32943C38.8992 5.33213 38.9032 5.33482 38.9073 5.33751C39.1266 5.47071 39.3432 5.6066 39.5572 5.74519C39.5706 5.75461 39.5854 5.76268 39.5989 5.7721C39.8061 5.90664 40.0106 6.04523 40.2125 6.1865C40.238 6.204 40.2636 6.22149 40.2892 6.24032C40.4856 6.37891 40.6794 6.52018 40.8718 6.6628C40.9 6.68433 40.9296 6.70586 40.9579 6.72739C41.149 6.87135 41.3387 7.01801 41.5244 7.1687C41.5499 7.18888 41.5755 7.21041 41.6011 7.23059C41.7908 7.38398 41.9792 7.54005 42.1649 7.70017C42.181 7.71362 42.1958 7.72707 42.2119 7.74053C42.5995 8.07555 42.9762 8.42134 43.3422 8.78058C43.357 8.79538 43.3732 8.81018 43.388 8.82498C43.5615 8.99586 43.7324 9.17077 43.902 9.34703C43.9248 9.37125 43.9477 9.39412 43.9706 9.41834C44.1347 9.59191 44.2975 9.76816 44.4563 9.94577C44.4805 9.97268 44.5034 9.99824 44.5276 10.0251C44.6864 10.2041 44.8438 10.3857 44.9972 10.5701C45.0174 10.5929 45.0363 10.6172 45.0551 10.64C45.2125 10.8297 45.3686 11.0221 45.5206 11.2172C45.5301 11.2294 45.5395 11.2415 45.5489 11.2536C45.7063 11.4554 45.8597 11.6599 46.0104 11.8658C46.0131 11.8698 46.0158 11.8738 46.0198 11.8779C46.1679 12.081 46.3118 12.2869 46.4531 12.4954C46.4679 12.5183 46.4841 12.5398 46.4989 12.5614C46.6334 12.7619 46.7653 12.9637 46.8958 13.1682C46.9146 13.1978 46.9335 13.2287 46.9523 13.2583C47.0788 13.4602 47.2026 13.6633 47.3237 13.8692C47.3425 13.9001 47.36 13.9324 47.3788 13.9634C47.5 14.1719 47.6184 14.3818 47.7327 14.593C47.7462 14.6186 47.7596 14.6442 47.7744 14.6697C47.8928 14.8904 48.0086 15.1124 48.1202 15.3357C48.1243 15.3438 48.1283 15.3532 48.1337 15.3627C48.2467 15.59 48.3557 15.8188 48.4607 16.0489C48.4674 16.0637 48.4741 16.0771 48.4809 16.0919C48.5831 16.3166 48.6813 16.544 48.7769 16.7727C48.789 16.8023 48.8024 16.8333 48.8145 16.8629C48.906 17.0849 48.9935 17.3082 49.0796 17.5316C49.0931 17.5679 49.1079 17.6042 49.1213 17.6419C49.2048 17.8652 49.2855 18.0899 49.3622 18.316C49.3743 18.351 49.3864 18.3873 49.3985 18.4236C49.4752 18.6537 49.5492 18.8851 49.6192 19.1192C49.6273 19.1461 49.6353 19.173 49.6434 19.2C49.7161 19.4448 49.7847 19.6897 49.8493 19.9373C49.8506 19.9413 49.8506 19.944 49.852 19.948C49.9165 20.1956 49.9758 20.4432 50.0323 20.6934C50.0363 20.7109 50.0403 20.7271 50.0444 20.7446C50.008 20.7486 49.9717 20.7553 49.934 20.7621C49.3151 20.8764 48.9087 21.276 48.6114 21.5667C48.4983 21.677 48.392 21.7819 48.3019 21.8438C48.0395 22.0268 47.5766 22.0241 47.1259 21.8384C46.6819 21.6555 46.2594 21.3339 45.8126 20.9948C45.7171 20.9222 45.6202 20.8482 45.5247 20.7769C44.751 20.1996 44.1051 20.0167 43.5992 20.0167C43.1336 20.0167 42.7865 20.1714 42.5618 20.3154C42.2873 20.493 42.1056 20.7109 41.9603 20.8872C41.9079 20.9491 41.8312 21.0419 41.7935 21.0729C41.776 21.0782 41.7168 21.0904 41.5822 21.0863C41.0346 21.0702 40.4816 20.8562 40.0658 20.4997C39.9057 20.3638 39.7483 20.1929 39.5828 20.014C39.4078 19.8243 39.2262 19.6292 39.0109 19.4368C38.357 18.8569 37.6088 18.5837 36.9105 18.6658C36.6508 18.6954 36.4274 18.7708 36.2471 18.8313C36.1516 18.8636 36.0615 18.8932 35.9982 18.9066C35.7278 18.9605 35.3766 18.7331 35.3147 18.4653C35.2595 18.2218 35.3416 17.8747 35.4277 17.506C35.5461 16.9866 35.6847 16.3987 35.5542 15.7488ZM22.8899 39.7575L22.8468 39.7292C22.2252 39.3121 21.5215 38.8385 21.4434 38.3165C21.4017 38.0461 21.5188 37.6801 21.6426 37.2939C21.8148 36.7557 22.0099 36.1449 21.9157 35.4506C21.8484 34.9622 21.6466 34.5438 21.4825 34.2047C21.3089 33.8468 21.1353 33.4903 20.9617 33.131C20.6173 32.422 20.3576 31.838 20.3993 31.3012C20.4249 30.981 20.2849 30.6715 20.0293 30.4777C19.7736 30.284 19.4372 30.2329 19.1358 30.3432C18.1415 30.7078 17.104 31.024 16.0559 31.2823C15.41 31.4411 14.6901 31.5689 14.2501 31.3106C13.9945 31.1599 13.7536 30.8397 13.498 30.5006C13.0526 29.9086 12.4996 29.1726 11.5294 28.9708C10.375 28.7286 9.36312 29.4458 8.81952 29.8306L8.66747 29.9382C8.02699 30.3916 7.38516 30.8464 6.74065 31.3012C6.37062 31.5649 5.98714 31.8367 5.6077 31.9497C5.17712 32.0789 4.67658 32.0035 4.30251 31.7519C4.15316 31.6523 3.99842 31.5097 3.83426 31.359C3.58265 31.1276 3.29739 30.8652 2.92871 30.658C2.89373 30.6379 2.8574 30.619 2.82107 30.6015C2.81703 30.5787 2.81165 30.5558 2.80761 30.5316C2.79147 30.4481 2.77667 30.3634 2.76186 30.28C2.74168 30.1629 2.72015 30.0458 2.70131 29.9288C2.68786 29.8427 2.6744 29.7579 2.66095 29.6718C2.64346 29.5561 2.62596 29.439 2.60982 29.322C2.59771 29.2359 2.58694 29.1484 2.57618 29.0623C2.56138 28.9452 2.54792 28.8282 2.53447 28.7111C2.52505 28.625 2.51563 28.5389 2.50621 28.4528C2.4941 28.3331 2.48334 28.2133 2.47257 28.0936C2.46584 28.0088 2.45777 27.9254 2.45104 27.8406C2.44162 27.7168 2.43355 27.5917 2.42682 27.4666C2.42144 27.3872 2.41606 27.3078 2.41202 27.2271C2.40529 27.0898 2.39991 26.9526 2.39588 26.8154C2.39318 26.7481 2.39049 26.6808 2.38915 26.6135C2.38376 26.409 2.38107 26.2045 2.38107 26C2.38107 24.6814 2.48872 23.3844 2.69593 22.1183C2.75514 21.7564 2.82241 21.3971 2.89776 21.0406C2.97311 20.684 3.05654 20.3302 3.14804 19.979C3.23953 19.6278 3.33776 19.2793 3.44406 18.9349C3.60418 18.4169 3.78044 17.907 3.97286 17.4037C4.29444 16.5655 4.66178 15.7488 5.07217 14.9563C5.23632 14.6388 5.40721 14.3266 5.58482 14.0172C7.27214 11.084 9.56091 8.52494 12.291 6.52422C12.3018 6.51615 12.3139 6.50807 12.326 6.5C12.9678 6.03177 13.6339 5.59449 14.3215 5.19085C14.4574 5.11147 14.5933 5.03343 14.7305 4.95539C14.9337 4.84103 15.1382 4.72935 15.3454 4.62171C15.6643 4.45487 15.9886 4.29342 16.3169 4.14003C16.3653 4.11716 16.4138 4.09429 16.4622 4.07141C18.5895 3.09325 20.8891 2.41513 23.3097 2.09625C24.3579 1.95767 25.4316 1.8877 26.4987 1.8877C28.0218 1.8877 29.5409 2.03167 31.0264 2.31288C30.9565 3.32871 30.8017 4.34993 30.6376 5.41958C30.4236 6.81484 30.2029 8.25585 30.1868 9.713C30.1814 10.0669 30.1922 10.4463 30.3025 10.8378C30.4519 11.3626 30.7479 11.7823 30.9874 12.1201C31.7086 13.1359 32.4285 14.1504 33.147 15.1662L33.2641 15.3317C33.4578 15.6035 33.657 15.8847 33.7054 16.1242C33.7552 16.3691 33.6745 16.7122 33.5883 17.0741C33.4619 17.6083 33.3192 18.2151 33.4726 18.8851C33.7619 20.1526 35.0846 21.0083 36.3642 20.754C36.5445 20.7177 36.7006 20.6652 36.8392 20.6194C36.9509 20.5818 37.0572 20.5468 37.1244 20.5387C37.2765 20.5199 37.5214 20.6396 37.7542 20.8468C37.8995 20.976 38.0421 21.1307 38.1941 21.2949C38.3906 21.5075 38.5938 21.7268 38.836 21.934C39.5814 22.5744 40.5354 22.9431 41.5203 22.9727C41.8258 22.9807 42.2846 22.9646 42.7233 22.713C43.0408 22.5314 43.2507 22.2784 43.4028 22.0954C43.4579 22.0282 43.5427 21.9272 43.575 21.9044C43.6221 21.8909 43.8966 21.9219 44.3931 22.2919C44.4846 22.3605 44.5761 22.4291 44.6676 22.4991C45.191 22.8973 45.7319 23.3077 46.4033 23.5849C46.8635 23.7746 47.3331 23.8674 47.7839 23.8674C48.3678 23.8674 48.9182 23.7087 49.3703 23.3965C49.5909 23.2431 49.7685 23.0696 49.926 22.9162C50.0309 22.8126 50.2085 22.639 50.2718 22.6188C50.2973 22.6188 50.3364 22.6309 50.3835 22.6484C50.5368 23.7571 50.6149 24.8846 50.6149 26.0067C50.6149 26.6351 50.5893 27.2634 50.5409 27.885C49.7282 27.8796 48.9195 27.7585 48.166 27.5258L48.1202 27.511C47.8902 27.4397 47.5995 27.3495 47.2537 27.3549C46.6119 27.3683 46.1154 27.6993 45.7144 28.0236C44.6003 28.9251 44.0325 29.8952 44.0271 30.907C44.0231 31.538 44.2397 32.0856 44.4308 32.5686C44.5949 32.9844 44.7362 33.3436 44.6837 33.6033C44.638 33.8199 44.4254 34.0782 44.2007 34.3514C44.015 34.5761 43.8051 34.8317 43.6315 35.1264C43.1606 35.9296 43.0179 36.967 43.2305 38.0461C43.4041 38.926 43.7795 39.7306 44.1092 40.4383L44.7362 41.7851C42.4461 44.4303 39.611 46.5481 36.4422 47.9837C36.5068 47.2693 36.5364 46.5535 36.527 45.8404C36.5243 45.6709 36.5203 45.5 36.5163 45.3305C36.5001 44.6927 36.484 44.0899 36.5808 43.5248C36.7315 42.6409 37.1661 41.7999 37.6277 40.9092C37.8443 40.4894 38.069 40.0549 38.2682 39.6055C39.1643 37.5819 39.1374 35.6713 38.1928 34.3621C37.4137 33.2844 36.2054 32.8202 35.1398 32.4112C34.8626 32.3049 34.6015 32.204 34.3513 32.0964C33.2412 31.6147 32.2051 30.8922 31.1085 30.1279C29.4158 28.9479 27.6733 27.733 25.5998 27.441C25.6415 26.518 25.5514 25.4403 24.9149 24.5388C24.5839 24.0706 24.1587 23.7329 23.786 23.4342L23.7699 23.4207C22.6208 22.5031 21.4502 21.3985 21.4784 20.1539C21.4892 19.652 21.7031 19.1125 21.9305 18.5407C22.2185 17.8141 22.5454 16.9893 22.5091 16.0663C22.4674 14.998 21.9521 14.071 21.4986 13.2529C21.0371 12.4228 20.6388 11.7056 20.7976 11.0571C20.9173 10.5714 21.364 10.1247 21.8363 9.65111C21.987 9.50041 22.1431 9.34434 22.2938 9.18154C23.2788 8.1213 23.9623 6.76506 24.2718 5.25947C24.3767 4.74953 24.0484 4.25171 23.5385 4.14811C23.0285 4.04316 22.5306 4.37145 22.427 4.88139C22.1875 6.04926 21.6641 7.09201 20.9146 7.8993C20.7868 8.03653 20.6509 8.17377 20.5056 8.31774C19.9001 8.9232 19.2139 9.6094 18.9676 10.6077C18.6339 11.9734 19.2811 13.1386 19.8517 14.1665C20.2378 14.8621 20.6025 15.5187 20.6267 16.1403C20.6469 16.6664 20.4195 17.2396 20.18 17.8464C19.9162 18.5138 19.6162 19.2713 19.5973 20.1095C19.5489 22.1762 21.0855 23.6871 22.5966 24.8927L22.6141 24.9061C22.9168 25.147 23.2034 25.3757 23.3797 25.626C23.8156 26.2422 23.7551 27.2029 23.6488 28.2173C23.6205 28.4851 23.708 28.7528 23.8896 28.9506C24.0713 29.1498 24.3296 29.2547 24.5987 29.2574C24.6216 29.2574 24.6431 29.2574 24.6647 29.2574C26.5713 29.2574 28.2546 30.4307 30.0334 31.6712C31.1583 32.4556 32.3208 33.2656 33.6031 33.8226C33.8897 33.9464 34.1831 34.0594 34.4656 34.1684C35.3658 34.5142 36.2162 34.8411 36.667 35.4641C37.4366 36.531 36.8405 38.1819 36.5472 38.8412C36.3709 39.2381 36.1691 39.6283 35.9552 40.0427C35.4479 41.0223 34.9245 42.0354 34.724 43.2073C34.5962 43.954 34.615 44.6779 34.6338 45.3789C34.6379 45.5417 34.6419 45.7045 34.6446 45.866C34.6567 46.8361 34.5935 47.8129 34.4549 48.7789C34.4306 48.787 34.4064 48.7951 34.3822 48.8031C34.2127 48.8623 34.0418 48.9189 33.8709 48.974C33.8413 48.9834 33.813 48.9929 33.7834 49.0023C33.5951 49.0615 33.4053 49.1193 33.2156 49.1732C33.1712 49.1853 33.1282 49.1987 33.0838 49.2108C32.894 49.2646 32.703 49.3171 32.5119 49.3656C32.5079 49.3669 32.5025 49.3682 32.4984 49.3696C32.3047 49.4194 32.1096 49.4651 31.9145 49.5109C31.8687 49.5216 31.8216 49.5324 31.7759 49.5418C31.5848 49.5849 31.3924 49.6252 31.2 49.6629C31.169 49.6696 31.1368 49.675 31.1058 49.6804C30.9336 49.714 30.7613 49.745 30.5878 49.7746C30.5447 49.7827 30.5003 49.7894 30.4573 49.7975C30.2648 49.8297 30.0738 49.858 29.88 49.8849C29.8356 49.8916 29.7912 49.897 29.7455 49.9024C29.5705 49.9253 29.3956 49.9481 29.2207 49.967C29.1978 49.9697 29.1749 49.9724 29.1534 49.9751C29.1494 49.6939 29.1601 49.3992 29.1696 49.0965C29.1978 48.23 29.2274 47.3325 28.9704 46.4405C28.6811 45.43 28.0581 44.5931 27.4876 43.9083C26.1609 42.3085 24.6122 40.9119 22.8899 39.7575Z" fill="#5B2514"/>
<path d="M13.0042 46.0732C12.9705 46.0207 12.9315 45.9736 12.8871 45.9292C12.844 45.8861 12.7956 45.8471 12.7445 45.8121C12.6933 45.7785 12.6382 45.7489 12.5817 45.726C12.5252 45.7018 12.4659 45.6843 12.4054 45.6722C12.2843 45.648 12.1592 45.648 12.0367 45.6722C11.9775 45.6843 11.9183 45.7018 11.8618 45.726C11.8039 45.7489 11.7501 45.7785 11.699 45.8121C11.6465 45.8471 11.5981 45.8861 11.555 45.9292C11.512 45.9736 11.4729 46.0207 11.4379 46.0732C11.4043 46.1243 11.3747 46.1781 11.3518 46.2346C11.3276 46.2925 11.3101 46.3517 11.298 46.4109C11.2859 46.4728 11.2792 46.5347 11.2792 46.5952C11.2792 46.8428 11.3801 47.0863 11.555 47.2612C11.5981 47.3043 11.6465 47.3446 11.699 47.3783C11.7501 47.4119 11.8039 47.4415 11.8618 47.4657C11.9183 47.4886 11.9775 47.5061 12.0367 47.5196C12.0986 47.5317 12.1605 47.537 12.2211 47.537C12.283 47.537 12.3448 47.5317 12.4054 47.5196C12.4659 47.5061 12.5252 47.4886 12.5817 47.4657C12.6382 47.4415 12.6933 47.4119 12.7445 47.3783C12.7956 47.3446 12.844 47.3043 12.8871 47.2612C12.9315 47.2182 12.9705 47.1697 13.0042 47.1186C13.0378 47.0675 13.0674 47.0123 13.0916 46.9558C13.1145 46.8993 13.132 46.8401 13.1441 46.7795C13.1562 46.719 13.1629 46.6571 13.1629 46.5952C13.1629 46.5347 13.1562 46.4728 13.1441 46.4109C13.132 46.3517 13.1145 46.2925 13.0916 46.2346C13.0674 46.1781 13.0378 46.1243 13.0042 46.0732Z" fill="#5B2514"/>
</svg>
