<svg width="32" height="32" viewBox="0 0 32 32" fill="none" xmlns="http://www.w3.org/2000/svg">
<path d="M1.09742 9.28101C1.17127 7.66733 1.42393 6.62659 1.76563 5.74319L1.77023 5.73098C2.10883 4.83203 2.63928 4.01767 3.32463 3.34456L3.33425 3.33512L3.34369 3.32551C4.01735 2.63926 4.832 2.10934 5.73017 1.77163L5.74566 1.76571C6.62706 1.42294 7.66575 1.17121 9.28078 1.09737M1.09742 9.28101C1.01978 11.0051 1 11.5396 1 16.0099C1 20.4812 1.01869 21.0144 1.09737 22.7389M1.09742 9.28101V9.71592M9.28078 1.09737C11.0053 1.01869 11.5396 1 16.0098 1C20.4801 1 21.0141 1.01977 22.7382 1.09739M9.28078 1.09737H9.7168M1.09737 22.7389C1.17121 24.3541 1.42294 25.3927 1.76571 26.2741L1.77163 26.2897M1.09737 22.7389L1.12382 22.8782M1.09737 22.7389V22.303M1.09742 9.71592C1.10345 9.57774 1.10996 9.43371 1.11692 9.28054C1.19784 7.51496 1.49798 6.48337 1.78407 5.75168C2.15434 4.79614 2.62336 4.07509 3.33992 3.35557C4.02101 2.65688 4.84899 2.11848 5.76385 1.77934C6.4923 1.4968 7.52115 1.19756 9.28007 1.11694C9.43373 1.10996 9.5782 1.10344 9.7168 1.09737M1.09742 9.71592C1.03352 11.177 1.01978 11.983 1.01978 16.0099C1.01978 20.0355 1.03352 20.8426 1.09737 22.303M1.09742 9.71592L1.09737 22.303M1.77163 26.2897C2.10934 27.1878 2.63926 28.0024 3.3255 28.6761L3.3351 28.6856L3.34453 28.6951C4.01766 29.3805 4.83205 29.911 5.73101 30.2495L5.74443 30.2546C6.62663 30.5967 7.66583 30.8486 9.28078 30.9225M1.77163 26.2897L1.75139 26.1829M1.75139 26.1829L1.12382 22.8782M1.75139 26.1829C1.48485 25.4789 1.21039 24.4963 1.12382 22.8782M1.75139 26.1829C1.76074 26.2077 1.77007 26.2321 1.7794 26.2561C2.1174 27.1673 2.65297 27.9924 3.34761 28.672C4.02701 29.3666 4.85179 29.902 5.76271 30.2401C6.49373 30.5247 7.52381 30.8224 9.28052 30.9029C11.0533 30.9836 11.6011 31 16.0098 31C20.4187 31 20.9669 30.9836 22.7397 30.9029C24.4985 30.8222 25.5274 30.523 26.2559 30.2405C27.1673 29.9026 27.9926 29.3669 28.6722 28.672C29.3666 27.9926 29.902 27.1679 30.2401 26.257C30.5247 25.5259 30.8224 24.496 30.9027 22.7393C30.9834 20.9664 31 20.4176 31 16.0099C31 11.6022 30.9834 11.0529 30.9027 9.28008C30.8217 7.512 30.5198 6.4816 30.2359 5.75251C29.8649 4.79456 29.3944 4.07006 28.6711 3.34674C27.9492 2.6263 27.2266 2.15546 26.2679 1.78401C25.5362 1.49795 24.5052 1.19786 22.7397 1.11694C22.5861 1.10996 22.4418 1.10345 22.3033 1.09739M1.12382 22.8782C1.12137 22.8326 1.11908 22.7865 1.11694 22.7397C1.10996 22.5861 1.10344 22.4416 1.09737 22.303M22.3033 1.09739H22.7382M22.3033 1.09739L9.7168 1.09737M22.3033 1.09739C20.8428 1.03354 20.0358 1.01978 16.0098 1.01978C11.9842 1.01978 11.1771 1.03352 9.7168 1.09737M22.7382 1.09739C24.3522 1.17122 25.393 1.42385 26.2766 1.76558L26.2887 1.77023C27.1876 2.10883 28.0021 2.63928 28.6752 3.32464L28.6845 3.33416L28.6941 3.34351C29.3795 4.01666 29.9099 4.83125 30.2483 5.73046L30.2539 5.74567C30.5967 6.62707 30.8486 7.66576 30.9223 9.28079M30.9223 22.7389C30.8486 24.3539 30.5967 25.3932 30.2546 26.2753L30.2495 26.2887C29.9108 27.1878 29.3805 28.0021 28.6951 28.6752L28.6854 28.6846L28.6761 28.6943C28.0024 29.3805 27.1878 29.9104 26.2895 30.2481L26.2741 30.2541C25.3927 30.5969 24.3539 30.8486 22.739 30.9225M13.3403 22.4549C14.1866 22.8054 15.0937 22.9859 16.0098 22.9859C17.86 22.9859 19.6344 22.2509 20.9428 20.9427C22.2509 19.6344 22.9859 17.86 22.9859 16.0099C22.9859 14.1597 22.2509 12.3853 20.9428 11.0771C19.6344 9.76883 17.86 9.03384 16.0098 9.03384C15.0937 9.03384 14.1866 9.21428 13.3403 9.56487C12.4938 9.91545 11.7249 10.4293 11.0771 11.0771C10.4293 11.7249 9.91545 12.4939 9.56486 13.3403C9.21429 14.1866 9.03385 15.0938 9.03385 16.0099C9.03385 16.9261 9.21429 17.8332 9.56486 18.6795C9.91545 19.5259 10.4293 20.2949 11.0771 20.9427C11.7249 21.5904 12.4938 22.1044 13.3403 22.4549ZM11.0615 11.0615C12.374 9.74915 14.1539 9.01186 16.0098 9.01186C17.8659 9.01186 19.6458 9.74915 20.9582 11.0615C22.2706 12.3739 23.0079 14.1539 23.0079 16.0099C23.0079 17.8658 22.2706 19.6458 20.9582 20.9582C19.6458 22.2706 17.8659 23.0078 16.0098 23.0078C14.1539 23.0078 12.374 22.2706 11.0615 20.9582C9.74915 19.6458 9.01187 17.8658 9.01187 16.0099C9.01187 14.1539 9.74915 12.3739 11.0615 11.0615ZM26.9484 7.38256C26.9484 7.91378 26.7373 8.42325 26.3618 8.79888C25.9862 9.17451 25.4767 9.38554 24.9455 9.38554C24.4142 9.38554 23.9049 9.17451 23.5292 8.79888C23.1536 8.42325 22.9425 7.91378 22.9425 7.38256C22.9425 6.85134 23.1536 6.34188 23.5292 5.96626C23.9049 5.59063 24.4142 5.37961 24.9455 5.37961C25.4767 5.37961 25.9862 5.59063 26.3618 5.96626C26.7373 6.34188 26.9484 6.85134 26.9484 7.38256Z" stroke="white" stroke-width="2" stroke-linejoin="round"/>
</svg>
