<svg width="42" height="42" viewBox="0 0 42 42" fill="none" xmlns="http://www.w3.org/2000/svg">
<path d="M15.8748 8.54767C15.4161 7.01851 15.0931 5.43051 14.92 3.79789C14.7498 2.19321 13.3502 1 11.7365 1H4.25137C2.32656 1 0.843762 2.66242 1.0132 4.57975C2.71993 23.8945 18.1055 39.28 37.4202 40.9868C39.3376 41.1562 41 39.6788 41 37.7541V31.0812C41 28.6449 39.8067 27.2502 38.2021 27.0801C36.5695 26.907 34.9815 26.584 33.4523 26.1253C31.5818 25.5642 29.5569 26.0924 28.1759 27.4732L24.9728 30.6763C19.2029 27.5535 14.4465 22.7971 11.3237 17.0271L14.5267 13.824C15.9076 12.4431 16.4358 10.4181 15.8748 8.54767Z" stroke="white" stroke-width="2" stroke-linecap="round" stroke-linejoin="round"/>
</svg>
