<svg width="155" height="115" viewBox="0 0 155 115" fill="none" xmlns="http://www.w3.org/2000/svg">
<path d="M79.7665 92.65V83.9588C86.7175 77.0078 92.5436 74.8018 101.42 74.8018C110.296 74.8018 116.122 77.0078 123.073 83.9588V92.65H79.7665Z" stroke="#50281D" stroke-width="3" stroke-linecap="round" stroke-linejoin="round"/>
<path d="M101.42 66.5398C107.842 66.5398 113.048 61.3339 113.048 54.9122C113.048 48.4905 107.842 43.2847 101.42 43.2847C94.9983 43.2847 89.7925 48.4905 89.7925 54.9122C89.7925 61.3339 94.9983 66.5398 101.42 66.5398Z" stroke="#5B2514" stroke-width="3" stroke-linecap="round" stroke-linejoin="round"/>
<path d="M79.7664 92.6498H31.9266V77.9527C43.6811 66.1983 53.5334 62.4678 68.5439 62.4678C82.0187 62.4678 91.3367 65.474 101.606 74.5927" stroke="#5B2514" stroke-width="3" stroke-linecap="round" stroke-linejoin="round"/>
<path d="M68.544 54.3611C77.3837 54.3611 84.5496 47.1952 84.5496 38.3555C84.5496 29.5158 77.3837 22.3499 68.544 22.3499C59.7043 22.3499 52.5383 29.5158 52.5383 38.3555C52.5383 47.1952 59.7043 54.3611 68.544 54.3611Z" stroke="#5B2514" stroke-width="3" stroke-linecap="round" stroke-linejoin="round"/>
</svg>
