<svg width="130" height="118" viewBox="0 0 130 118" fill="none" xmlns="http://www.w3.org/2000/svg">
<path d="M67.8348 101.5V90.9914C76.5286 82.587 83.8155 79.9197 94.9174 79.9197C106.019 79.9197 113.306 82.587 122 90.9914V101.5H67.8348Z" stroke="#50281D" stroke-width="2" stroke-linecap="round" stroke-linejoin="round"/>
<path d="M94.9174 69.93C102.949 69.93 109.46 63.6357 109.46 55.8711C109.46 48.1066 102.949 41.8123 94.9174 41.8123C86.8856 41.8123 80.3745 48.1066 80.3745 55.8711C80.3745 63.6357 86.8856 69.93 94.9174 69.93Z" stroke="#50281D" stroke-width="2" stroke-linecap="round" stroke-linejoin="round"/>
<path d="M67.8346 101.5H8V83.7295C22.7016 69.5171 35.0242 65.0066 53.7983 65.0066C70.6516 65.0066 82.3059 68.6414 95.1497 79.6668" stroke="#50281D" stroke-width="2" stroke-linecap="round" stroke-linejoin="round"/>
<path d="M53.7984 55.2049C64.8544 55.2049 73.8171 46.5405 73.8171 35.8525C73.8171 25.1644 64.8544 16.5 53.7984 16.5C42.7424 16.5 33.7797 25.1644 33.7797 35.8525C33.7797 46.5405 42.7424 55.2049 53.7984 55.2049Z" stroke="#50281D" stroke-width="2" stroke-linecap="round" stroke-linejoin="round"/>
</svg>
