<svg width="118" height="88" viewBox="0 0 118 88" fill="none" xmlns="http://www.w3.org/2000/svg">
<path d="M61.8348 86.5V75.9914C70.5286 67.587 77.8155 64.9197 88.9174 64.9197C100.019 64.9197 107.306 67.587 116 75.9914V86.5H61.8348Z" stroke="#50281D" stroke-width="3" stroke-linecap="round" stroke-linejoin="round"/>
<path d="M88.9174 54.93C96.9493 54.93 103.46 48.6357 103.46 40.8711C103.46 33.1066 96.9493 26.8123 88.9174 26.8123C80.8856 26.8123 74.3745 33.1066 74.3745 40.8711C74.3745 48.6357 80.8856 54.93 88.9174 54.93Z" stroke="#50281D" stroke-width="3" stroke-linecap="round" stroke-linejoin="round"/>
<path d="M61.8346 86.4997H2V68.7295C16.7016 54.5171 29.0242 50.0066 47.7983 50.0066C64.6516 50.0066 76.3059 53.6414 89.1497 64.6668" stroke="#50281D" stroke-width="3" stroke-linecap="round" stroke-linejoin="round"/>
<path d="M47.7984 40.2049C58.8544 40.2049 67.8171 31.5405 67.8171 20.8525C67.8171 10.1644 58.8544 1.5 47.7984 1.5C36.7424 1.5 27.7797 10.1644 27.7797 20.8525C27.7797 31.5405 36.7424 40.2049 47.7984 40.2049Z" stroke="#50281D" stroke-width="3" stroke-linecap="round" stroke-linejoin="round"/>
</svg>
