<svg width="27" height="32" viewBox="0 0 27 32" fill="none" xmlns="http://www.w3.org/2000/svg">
<path d="M20.8285 5.7016C19.7768 4.44091 19.1446 2.79708 19.1446 1H17.8267M20.8285 5.7016C21.7869 6.85094 23.0846 7.68682 24.5624 8.01412C25.0216 8.11861 25.5008 8.17439 26 8.17439V13.3286C23.4441 13.3286 21.0745 12.472 19.1443 11.0232V21.5061C19.1443 26.7441 15.0708 31 10.0722 31C7.45633 31 5.09344 29.8297 3.4361 27.97C1.92519 26.2705 1 23.9997 1 21.5061C1 16.3447 4.95368 12.1376 9.85251 12.0262M20.8285 5.7016C20.8029 5.68414 20.7774 5.66652 20.752 5.64871M6.71762 24.0275C6.22508 23.3171 5.93221 22.4465 5.93221 21.4991C5.93221 19.1101 7.78924 17.1667 10.0723 17.1667C10.4983 17.1667 10.9109 17.2432 11.297 17.3686V12.1029C10.8976 12.0471 10.4916 12.0122 10.0723 12.0122C9.99904 12.0122 9.40929 12.0533 9.33606 12.0533M17.8197 1H14.2122L14.2056 21.6663C14.1257 23.9788 12.3019 25.8386 10.0722 25.8386C8.6877 25.8386 7.46964 25.1212 6.71086 24.0346" stroke="white" stroke-width="2" stroke-linejoin="round"/>
</svg>
