<svg width="43" height="32" viewBox="0 0 43 32" fill="none" xmlns="http://www.w3.org/2000/svg">
<path d="M17.3566 22.7237V9.27663C17.3576 9.22134 17.3719 9.16731 17.3981 9.11995C17.4243 9.07259 17.4615 9.03357 17.5059 9.00678C17.5503 8.98 17.6004 8.96639 17.6511 8.96733C17.7018 8.96827 17.7515 8.98372 17.795 9.01213L27.5034 15.7357C27.5456 15.7628 27.5805 15.8015 27.6048 15.8479C27.6291 15.8943 27.6419 15.9468 27.6419 16.0002C27.6419 16.0536 27.6291 16.1061 27.6048 16.1525C27.5805 16.1989 27.5456 16.2375 27.5034 16.2647L17.795 22.9882C17.7515 23.0166 17.7018 23.0321 17.6511 23.033C17.6004 23.034 17.5503 23.0204 17.5059 22.9936C17.4615 22.9668 17.4243 22.9278 17.3981 22.8804C17.3719 22.8331 17.3576 22.779 17.3566 22.7237Z" stroke="white" stroke-width="2"/>
<path d="M34.5733 1H8.75999C4.84243 1 1.66663 4.46101 1.66663 8.73037V23.2696C1.66663 27.539 4.84243 31 8.75999 31H34.5733C38.4908 31 41.6666 27.539 41.6666 23.2696V8.73037C41.6666 4.46101 38.4908 1 34.5733 1Z" stroke="white" stroke-width="2"/>
</svg>
